<svg width="36" height="40" viewBox="0 0 36 40" fill="none" xmlns="http://www.w3.org/2000/svg">
<path d="M0.539307 10.0549V29.8352L17.792 39.8791L35.1437 29.8352V10.0549L17.792 0L0.539307 10.0549Z" fill="#01246E"/>
<path d="M5.75873 21.088V31.132L2.01147 28.9342V11.9232L5.65983 13.9891L13.2532 28.5715V18.4287L16.9016 20.5276V37.7364L13.0554 35.4726L5.75873 21.088Z" fill="white"/>
<path d="M17.5937 2.1651L2.84644 10.8354L6.59369 13.0332L12.0222 9.73653L23.1102 16.1321L26.9563 13.9343L15.9673 7.52773L21.1981 4.38488L17.5937 2.1651Z" fill="white"/>
<path d="M32.977 11.8239L18.2847 20.5272V37.736L21.933 35.4723V29.1646L32.922 22.6591V18.3294L21.933 24.736V22.6591L32.922 16.2635L32.977 11.8239Z" fill="white"/>
</svg>
