<svg width="16" height="16" viewBox="0 0 16 16" fill="none" xmlns="http://www.w3.org/2000/svg">
<g clip-path="url(#clip0_146_9717)">
<path d="M15.6136 11.0554L13.4196 8.86136C13.3584 8.79624 13.2848 8.74408 13.2031 8.70797C13.1214 8.67185 13.0333 8.65253 12.944 8.65114C12.8547 8.64976 12.766 8.66633 12.6832 8.69989C12.6004 8.73345 12.5252 8.7833 12.462 8.84649C12.3989 8.90968 12.3491 8.98491 12.3156 9.06772C12.2821 9.15054 12.2656 9.23923 12.267 9.32855C12.2685 9.41787 12.2879 9.50599 12.324 9.58767C12.3602 9.66935 12.4124 9.74292 12.4776 9.80403L14.0043 11.3334C13.1744 11.3352 12.3524 11.1711 11.587 10.8505C10.8215 10.5299 10.1278 10.0594 9.54693 9.4667C9.48242 9.40729 9.40664 9.36145 9.32408 9.3319C9.24152 9.30234 9.15386 9.28968 9.06631 9.29465C8.97876 9.29963 8.8931 9.32214 8.81441 9.36085C8.73573 9.39957 8.66563 9.4537 8.60826 9.52003L8.5996 9.53336C8.48751 9.66375 8.43014 9.83239 8.43946 10.0041C8.44877 10.1758 8.52406 10.3372 8.6496 10.4547C9.34946 11.1625 10.184 11.7229 11.1041 12.1028C12.0241 12.4827 13.0109 12.6745 14.0063 12.6667L12.4776 14.1954C12.4079 14.2553 12.3514 14.3289 12.3116 14.4117C12.2717 14.4945 12.2495 14.5847 12.2461 14.6765C12.2428 14.7683 12.2584 14.8598 12.2921 14.9453C12.3258 15.0308 12.3768 15.1084 12.4419 15.1732C12.507 15.238 12.5848 15.2887 12.6705 15.322C12.7561 15.3554 12.8477 15.3706 12.9395 15.3669C13.0313 15.3632 13.1213 15.3405 13.2039 15.3003C13.2866 15.2601 13.36 15.2033 13.4196 15.1334L15.6136 12.9394C15.8632 12.6894 16.0033 12.3506 16.0033 11.9974C16.0033 11.6441 15.8632 11.3053 15.6136 11.0554Z" fill="#8F8F8F"/>
<path d="M14.0046 4.66668L12.4779 6.19335C12.4649 6.2109 12.4529 6.22914 12.4419 6.24801C12.3343 6.37918 12.2813 6.54667 12.2937 6.71586C12.3061 6.88505 12.3831 7.04299 12.5087 7.15703C12.6343 7.27106 12.7989 7.33247 12.9685 7.32856C13.1381 7.32465 13.2997 7.25572 13.4199 7.13601L14.5572 6.00001L15.6146 4.94335C15.7933 4.76319 15.917 4.53574 15.9709 4.28775C16.0249 4.03975 16.007 3.7815 15.9192 3.54335C15.8545 3.36105 15.7502 3.19531 15.6139 3.05801L13.4199 0.866681C13.359 0.800554 13.2854 0.747415 13.2035 0.71046C13.1216 0.673504 13.033 0.653494 12.9432 0.651632C12.8533 0.649771 12.764 0.666096 12.6807 0.699627C12.5973 0.733158 12.5215 0.783202 12.458 0.846751C12.3944 0.910301 12.3444 0.986044 12.3109 1.06943C12.2773 1.15281 12.261 1.24211 12.2629 1.33197C12.2647 1.42182 12.2847 1.51037 12.3217 1.59229C12.3586 1.67421 12.4118 1.74782 12.4779 1.80868L14.0066 3.33668C10.7179 3.34468 8.91524 5.11935 7.28057 6.98601C5.77924 5.29135 3.99991 3.60001 0.99124 3.36401L0.670573 3.33335C0.493762 3.33335 0.324193 3.40359 0.199168 3.52861C0.0741441 3.65363 0.00390625 3.8232 0.00390625 4.00001C0.00731968 4.17576 0.0786534 4.34335 0.202945 4.46764C0.327237 4.59193 0.494831 4.66327 0.670573 4.66668C0.718573 4.66668 0.861906 4.68868 0.861906 4.68868C3.45924 4.88535 4.94991 6.34801 6.39991 8.00001C4.95857 9.64401 3.47791 11.1333 0.901906 11.3067L0.63524 11.3207C0.459755 11.3316 0.295812 11.4119 0.179477 11.5437C0.0631418 11.6755 0.00394397 11.8482 0.0149062 12.0237C0.0258685 12.1992 0.106093 12.3631 0.237931 12.4794C0.369769 12.5958 0.542421 12.655 0.717906 12.644C0.821906 12.6393 0.99124 12.6353 1.07457 12.6287C4.42124 12.3707 6.23657 10.2287 7.85524 8.35601C9.48991 6.46668 11.0339 4.67868 14.0046 4.66668Z" fill="#8F8F8F"/>
</g>
<defs>
<clipPath id="clip0_146_9717">
<rect width="16" height="16" fill="white"/>
</clipPath>
</defs>
</svg>
